<?xml version="1.0" encoding="UTF-8"?>
<svg width="1200pt" height="1200pt" version="1.1" viewBox="0 0 1200 1200" xmlns="http://www.w3.org/2000/svg">
 <path d="m550.64 395.9c0-7.9688 6.4219-14.391 14.391-14.391h65.812c7.9688 0 14.391 6.4219 14.391 14.391s-6.4219 14.391-14.391 14.391h-65.812c-7.9688 0-14.391-6.4219-14.391-14.391zm140.21 82.734c0-48.75 39.656-88.453 88.453-88.453 48.75 0 88.453 39.656 88.453 88.453 0 64.969-75.188 138.84-78.422 141.98-2.8125 2.7188-6.4219 4.0781-10.031 4.0781-3.6094 0-7.2188-1.3594-10.031-4.0781-3.1875-3.1406-78.422-76.969-78.422-141.98zm28.781 0c0 37.641 36.891 85.922 59.625 110.91 22.781-24.984 59.672-73.359 59.672-110.91 0-32.906-26.766-59.672-59.672-59.672s-59.672 26.766-59.672 59.672zm59.672 39.047c-21.562 0-39.094-17.531-39.094-39.094s17.531-39.094 39.094-39.094 39.094 17.531 39.094 39.094-17.531 39.094-39.094 39.094zm0-28.781c5.6719 0 10.266-4.5938 10.266-10.266s-4.5938-10.266-10.266-10.266c-5.6719 0-10.266 4.5938-10.266 10.266s4.5938 10.266 10.266 10.266zm-447 207.1c0-21.562 17.531-39.094 39.094-39.094s39.094 17.531 39.094 39.094c0 25.219-26.062 51.328-29.062 54.188-2.8125 2.7188-6.4219 4.0781-10.031 4.0781-3.6094 0-7.2188-1.3594-10.031-4.0781-2.9531-2.9062-29.062-28.969-29.062-54.188zm28.781 0c0 5.8594 4.7344 14.391 10.312 21.938 5.5781-7.5 10.266-15.984 10.266-21.938 0-5.6719-4.5938-10.266-10.266-10.266-5.6719 0-10.266 4.5938-10.266 10.266zm418.22-48.703h-244.4c-7.9688 0-14.391 6.4219-14.391 14.391v119.3h-149.11c-7.9688 0-14.391 6.4219-14.391 14.391s6.4219 14.391 14.391 14.391h163.55c7.9688 0 14.391-6.4219 14.391-14.391v-119.3h230.02c7.9688 0 14.391-6.4219 14.391-14.391s-6.4219-14.391-14.391-14.391zm308.21 255.52c0 21.562-17.531 39.094-39.094 39.094h-96.188c-21.562 0-39.094-17.531-39.094-39.094 0-15.375 9-28.594 21.984-34.969l-670.22 0.046875c12.938 6.375 21.984 19.594 21.984 34.969 0 21.562-17.531 39.094-39.094 39.094h-96.188c-21.562 0-39.094-17.531-39.094-39.094 0-15.984 9.6562-29.719 23.438-35.766v-534.14c-13.781-6.0469-23.438-19.781-23.438-35.766 0-21.562 17.531-39.094 39.094-39.094h96.188c21.562 0 39.094 17.531 39.094 39.094 0 15.375-9 28.594-21.984 34.969h670.22c-12.938-6.375-21.984-19.594-21.984-34.969 0-21.562 17.531-39.094 39.094-39.094h96.188c21.562 0 39.094 17.531 39.094 39.094 0 15.984-9.6562 29.719-23.438 35.766v534.14c13.781 6.0469 23.438 19.781 23.438 35.766zm-261.89-151.08h5.25c6.0469 0 11.953-2.5312 16.125-6.8906l21.703-22.641c3.9844-4.1719 6.1875-9.6562 6.1875-15.422 0-28.172 22.922-51.141 51.141-51.141h10.547v-294.71h-474.32v40.688c0 29.953-24.375 54.375-54.375 54.375h-28.078c-6.9375 0-13.688 2.8594-18.469 7.875l-23.625 24.656c-4.5938 4.7812-7.0781 11.062-7.0781 17.672 0 29.953-24.375 54.375-54.375 54.375h-12.75v278.53h490.5v-15.703c0-39.516 32.109-71.625 71.625-71.625zm-660.84-415.5v527.53h69.938v-10.266l-0.046874-506.95c0-0.09375 0.046874-0.1875 0.046874-0.32812v-9.9844zm800.58 527.53h69.938v-527.53h-69.938v10.266l0.046874 506.95c0 0.09375-0.046874 0.1875-0.046874 0.32812zm-23.391-566.63c0 5.6719 4.5938 10.266 10.266 10.266h96.188c5.6719 0 10.266-4.5938 10.266-10.266s-4.5938-10.266-10.266-10.266h-96.188c-5.6719 0-10.266 4.5938-10.266 10.266zm-508.55 63.75h-169.92v170.86h12.75c14.109 0 25.547-11.484 25.547-25.547s5.3438-27.422 15.094-37.594l23.625-24.656c10.219-10.641 24.516-16.781 39.281-16.781h28.078c14.109 0 25.547-11.484 25.547-25.547zm-292.08-63.75c0 5.6719 4.5938 10.266 10.266 10.266h96.188c5.6719 0 10.266-4.5938 10.266-10.266s-4.5938-10.266-10.266-10.266h-96.188c-5.6719 0-10.266 4.5938-10.266 10.266zm116.77 605.68c0-5.6719-4.5938-10.266-10.266-10.266h-96.188c-5.6719 0-10.266 4.5938-10.266 10.266s4.5938 10.266 10.266 10.266h96.188c5.6719 0 10.266-4.5938 10.266-10.266zm524.68-63.75h153.74v-154.64h-10.547c-12.328 0-22.312 10.031-22.312 22.312 0 13.219-5.0156 25.781-14.203 35.344l-21.703 22.641c-9.5625 10.031-23.062 15.797-36.938 15.797h-5.25c-23.625 0-42.844 19.219-42.844 42.844v15.703zm275.95 63.75c0-5.6719-4.5938-10.266-10.266-10.266h-96.188c-5.6719 0-10.266 4.5938-10.266 10.266s4.5938 10.266 10.266 10.266h96.188c5.6719 0 10.266-4.5938 10.266-10.266z"/>
</svg>
