<?xml version="1.0" encoding="UTF-8"?>
<svg width="1200pt" height="1200pt" version="1.1" viewBox="0 0 1200 1200" xmlns="http://www.w3.org/2000/svg">
 <path d="m1162.5 696.94c-0.046875-3.5625-1.3594-6.7969-3.4688-9.2812-0.65625-0.75-1.3594-1.4531-2.1562-2.0625-0.98438-0.79688-2.1094-1.4062-3.2812-1.9219l-181.55-81.609c-0.1875-0.09375-0.42188-0.1875-0.60938-0.28125l-66.656-29.953c-0.1875-0.09375-0.375-0.1875-0.60938-0.28125l-77.109-34.641c-7.3594-3.3281-16.031-0.046875-19.312 7.3594-3.3281 7.3594-0.046875 16.031 7.3594 19.312l68.766 30.938v92.625l-221.81-0.046875-203.02-156.89 99.188-44.578c7.3594-3.3281 10.641-11.953 7.3594-19.312-3.3281-7.3594-11.953-10.641-19.312-7.3594l-121.18 54.469c-0.1875 0.09375-0.32812 0.14062-0.51562 0.23438l-69.047 31.031c-0.14062 0.09375-0.32812 0.14062-0.46875 0.23438l-59.203 26.625c-0.1875 0.09375-0.42188 0.1875-0.60938 0.28125l-66.703 30c-0.1875 0.09375-0.375 0.14062-0.5625 0.23438l-181.6 81.609c-1.1719 0.51562-2.2969 1.1719-3.2812 1.9219-0.79688 0.60938-1.4531 1.2656-2.1094 2.0156-2.1562 2.5312-3.4688 5.7656-3.5156 9.3281v94.172c0 5.7656 3.375 10.969 8.625 13.312l547.6 246.19c1.8281 0.84375 3.8438 1.3594 6 1.4062h0.60938c2.1562-0.046876 4.1719-0.51563 6-1.4062l547.55-246.14c5.25-2.3906 8.625-7.5938 8.625-13.359zm-182.16-59.109 131.9 59.297-131.9 59.297zm-664.22-43.406 43.172-19.406 144.98 112.03-188.16 0.046875zm-67.219 30.234 38.016-17.109v94.125c0 8.0625 6.5156 14.625 14.625 14.625h245.53c6.2344 0 11.812-3.9844 13.828-9.8906 2.0156-5.9062 0.046874-12.469-4.875-16.266l-166.5-128.68 39.328-17.672 219.28 169.45c2.5781 1.9688 5.7188 3.0469 8.9531 3.0469h241.4c8.0625 0 14.625-6.5156 14.625-14.625v-94.125l38.016 17.109v144.89l-38.016 17.109v-17.719c0-8.0625-6.5156-14.625-14.625-14.625h-596.95c-8.0625 0-14.625 6.5156-14.625 14.625v17.719l-38.016-17.109-0.046875-144.89zm-29.25 13.172v118.59l-131.9-59.297zm365.72 377.02-518.68-233.16v-61.969l161.26 72.469c0.23438 0.09375 0.42188 0.1875 0.65625 0.28125l66.609 29.953c0.23438 0.09375 0.42188 0.1875 0.65625 0.28125l289.55 130.18v61.969zm14.625-87.422-283.87-127.6v-16.266h567.71v16.266zm533.29-145.74-518.68 233.16v-61.969l289.55-130.18c0.1875-0.09375 0.375-0.14062 0.5625-0.23438l66.656-29.953c0.23438-0.09375 0.42188-0.1875 0.65625-0.28125l161.26-72.516zm-525.98-288.32c0.09375 0.14062 0.1875 0.28125 0.28125 0.375l9.4688 13.547c-33.703 12.984-54.516 36.234-54.516 62.391 0 41.016 50.906 73.172 115.88 73.172s115.88-32.156 115.88-73.172c0-26.156-20.812-49.406-54.516-62.391l9.4688-13.547c0.046874-0.09375 0.09375-0.14062 0.14062-0.23438 6.9844-10.453 14.625-21 22.734-32.156 32.25-44.484 68.766-94.828 68.766-150.98 0-89.578-72.844-162.42-162.42-162.42-89.672 0-162.56 72.891-162.56 162.42 0 54.891 33.844 101.95 66.609 147.47 8.8594 12.328 17.25 23.953 24.797 35.531zm157.69 76.312c0 20.766-35.578 43.969-86.672 43.969-51.047 0-86.672-23.156-86.672-43.969 0-14.719 17.156-29.438 42.703-37.5l31.969 45.844c2.7188 3.8906 7.2188 6.2344 12 6.2344s9.2344-2.3438 12-6.2344l31.969-45.844c25.547 8.1094 42.703 22.828 42.703 37.5zm-86.672-392.48c73.453 0 133.22 59.766 133.22 133.22 0 46.641-32.156 90.984-63.188 133.82-8.2031 11.344-15.984 22.078-23.297 32.953l-46.734 67.031-46.688-66.938c-7.875-12.094-16.781-24.469-25.406-36.422-30.047-41.766-61.125-84.891-61.125-130.4 0.046875-73.547 59.766-133.26 133.22-133.26zm0 211.69c46.031 0 83.484-37.453 83.484-83.484s-37.453-83.484-83.484-83.484-83.484 37.453-83.484 83.484 37.453 83.484 83.484 83.484zm0-137.76c29.906 0 54.281 24.328 54.281 54.281 0 29.906-24.328 54.281-54.281 54.281-29.906 0-54.281-24.328-54.281-54.281 0.046875-29.906 24.375-54.281 54.281-54.281z"/>
</svg>
