<?xml version="1.0" encoding="UTF-8"?>
<svg width="1200pt" height="1200pt"  version="1.1" viewBox="0 0 1200 1200" xmlns="http://www.w3.org/2000/svg">
 <path d="m923.14 136.5v-54.523c0-24.465-20.012-44.477-44.473-44.477h-557.33c-24.461 0-44.477 20.012-44.477 44.477v1036.1c0 24.461 20.012 44.477 44.477 44.477h557.32c24.461 0 44.477-20.012 44.477-44.477v-981.53zm-482.61 377.45c0-0.97656 0.52344-1.8125 1.3984-2.25 0.875-0.42578 1.8633-0.32422 2.6367 0.27344l88.727 69.125c1.1992 0.9375 1.8633 2.2109 1.9258 3.7383 0.0625 1.5117-0.48828 2.8516-1.6016 3.8867l-88.875 82.199c-0.75 0.6875-1.7617 0.86328-2.6992 0.44922-0.92578-0.41406-1.5-1.2734-1.5-2.2891l0.003906-155.13zm21.062 174.38c-1.0508 0-1.9492-0.61328-2.3242-1.5859-0.38672-0.97656-0.13672-2.0391 0.625-2.75l90.824-83.988c1.8125-1.6758 4.5234-1.7891 6.4609-0.27344l23.762 18.523c5.6875 4.4258 12.375 6.6484 19.051 6.6484s13.363-2.2109 19.051-6.6484l23.789-18.539c1.9492-1.5117 4.6484-1.3984 6.4609 0.27344l90.801 84.012c0.77344 0.71094 1.0117 1.7617 0.625 2.75-0.38672 0.97656-1.2734 1.5859-2.3242 1.5859l-276.8 0.003907zm297.89-19.25c0 1.0117-0.5625 1.8867-1.5 2.2891-0.9375 0.39844-1.9492 0.23828-2.6992-0.44922l-88.863-82.211c-1.1133-1.0391-1.6641-2.3633-1.6016-3.8867 0.0625-1.5117 0.72656-2.8008 1.9258-3.7383l88.699-69.113c0.77344-0.60156 1.75-0.69922 2.6367-0.27344 0.875 0.42578 1.3984 1.2617 1.3984 2.25zm-21.977-174.04c1.0859 0 2.0117 0.66406 2.3633 1.6875 0.35156 1.0234 0.023438 2.1133-0.82422 2.7891l-132.25 103.04c-2.0117 1.5625-4.3867 2.3516-6.7891 2.3516-2.3867 0-4.7734-0.78906-6.7891-2.3516l-132.25-103.04c-0.86328-0.66406-1.1875-1.75-0.82422-2.7891 0.35156-1.0234 1.2734-1.6875 2.3633-1.6875zm158.14 551.82h-591.27v-910.31l591.27-0.050781zm-321.51 30.535h51.762c7.5117 0 14.336 3.0625 19.273 8.0117 4.9375 4.9375 8.0117 11.762 8.0117 19.273 0 15-12.289 27.289-27.289 27.289l-51.758 0.003906c-14.977 0-27.289-12.312-27.289-27.289 0-15.012 12.289-27.289 27.289-27.289zm51.75 20c1.9883 0 3.8125 0.82422 5.1367 2.1484s2.1484 3.1367 2.1484 5.1367c0 2.3516-0.9375 3.8633-2.4883 5.4883-1.2617 1.1133-2.9492 1.7891-4.8008 1.7891h-51.746c-4.0391 0-7.2891-3.25-7.2891-7.2891 0-4.0117 3.2617-7.2891 7.2891-7.2891l51.75 0.003907zm-82.602-1000.4c-5.5234 0-10-4.4766-10-10s4.4766-10 10-10h113.46c5.5234 0 10 4.4766 10 10s-4.4766 10-10 10z" fill-rule="evenodd"/>
</svg>
