<?xml version="1.0" encoding="UTF-8"?>
<svg width="1200pt" height="1200pt" version="1.1" fill="#d62020" viewBox="0 0 1200 1200" xmlns="http://www.w3.org/2000/svg">
 <path d="m600 106.8c-169.2 0-306 136.8-306 307.2 0 44.398 9.6016 85.199 25.199 123.6l264 512.4c7.1992 14.398 26.398 14.398 33.602 0l264-512.4c16.801-37.199 25.199-79.199 25.199-123.6 0-170.4-136.8-307.2-306-307.2zm0 553.2c-136.8 0-248.4-111.6-248.4-248.4 0-136.8 111.6-248.4 248.4-248.4 136.8 0 248.4 111.6 248.4 248.4 0 136.8-111.6 248.4-248.4 248.4z"/>
 <path d="m669.6 258h-132c-31.199 0-57.602 25.199-57.602 57.602v254.4c0 7.1992 6 13.199 13.199 13.199h26.398c7.1992 0 13.199-6 13.199-13.199l0.003906-102h135.6c31.199 0 57.602-25.199 57.602-57.602v-96c1.1953-31.199-25.203-56.398-56.402-56.398zm4.7969 153.6c0 2.3984-2.3984 4.8008-4.8008 4.8008l-135.6-0.003906v-100.8c0-2.3984 2.3984-4.8008 4.8008-4.8008h132c2.3984 0 4.8008 2.3984 4.8008 4.8008v96z"/>
</svg>
